<svg width="226" height="50" viewBox="0 0 226 50" fill="none" xmlns="http://www.w3.org/2000/svg">
<g clip-path="url(#clip0)">
<path d="M38.75 50.0002H3.75C1.7 50.0002 0 48.3335 0 46.3237V12.01C0 10.0002 1.7 8.3335 3.75 8.3335H38.75C40.8 8.3335 42.5 10.0002 42.5 12.01V46.3237C42.5 48.3335 40.8 50.0002 38.75 50.0002ZM3.75 10.7845C3.05 10.7845 2.5 11.3237 2.5 12.01V46.3237C2.5 47.01 3.05 47.5492 3.75 47.5492H38.75C39.45 47.5492 40 47.01 40 46.3237V12.01C40 11.3237 39.45 10.7845 38.75 10.7845H3.75Z" fill="#552B9A"/>
<path d="M31.6 1.42162C33.55 3.33338 33.55 6.42162 31.6 8.33338L21 18.7746L10.4 8.3824C8.45 6.47064 8.45 3.3824 10.4 1.47064C12.35 -0.490148 15.5 -0.490148 17.45 1.42162L21 4.90201L24.55 1.42162C26.5 -0.490148 29.65 -0.490148 31.6 1.42162Z" fill="#D33741"/>
<path d="M74.2502 27.6472H70.6502L69.6502 25.6864H69.5002C68.8002 26.5197 68.1002 27.1079 67.3502 27.4511C66.6002 27.7942 65.6502 27.9413 64.5002 27.9413C63.0502 27.9413 61.9502 27.5001 61.1502 26.6668C60.3502 25.8334 59.9502 24.657 59.9502 23.1374C59.9502 20.0981 62.1502 18.4805 66.5002 18.3334L69.0502 18.2354V18.0393C69.0502 16.8138 68.4502 16.2256 67.2002 16.2256C66.1002 16.2256 64.7002 16.5687 63.0002 17.304L61.5002 13.9217C63.2502 13.0393 65.5002 12.5981 68.1502 12.5981C70.1002 12.5981 71.6002 13.0883 72.6502 14.0197C73.7002 14.9511 74.2502 16.2746 74.2502 17.9413V27.6472ZM65.3002 22.9413C65.3002 23.8727 65.8002 24.3138 66.8002 24.3138C67.4502 24.3138 67.9502 24.1178 68.4002 23.7256C68.8502 23.3334 69.0502 22.8432 69.0502 22.206V21.0785L67.8502 21.1276C66.1502 21.1766 65.3002 21.7648 65.3002 22.9413Z" fill="#552B9A"/>
<path d="M101.5 27.6469H96.3V19.6077C96.3 18.5782 96.15 17.8429 95.9 17.3527C95.6 16.8626 95.2 16.6175 94.55 16.6175C93.75 16.6175 93.15 16.9606 92.8 17.5978C92.45 18.2841 92.25 19.3135 92.25 20.7351V27.6469H87V19.6077C87 18.5782 86.85 17.8429 86.6 17.3527C86.35 16.8626 85.9 16.6175 85.3 16.6175C84.45 16.6175 83.85 16.9606 83.5 17.6959C83.15 18.4312 82.95 19.5586 82.95 21.1763V27.6469H77.75V12.8429H81.7L82.35 14.6567H82.65C83.05 13.9704 83.6 13.4802 84.35 13.088C85.1 12.7449 86 12.5488 86.95 12.5488C89.15 12.5488 90.65 13.1861 91.55 14.5096H91.95C92.35 13.9214 92.95 13.4312 93.75 13.088C94.5 12.7449 95.35 12.5488 96.25 12.5488C98 12.5488 99.35 12.99 100.2 13.8724C101.05 14.7547 101.5 16.1273 101.5 17.99V27.6469Z" fill="#552B9A"/>
<path d="M119.451 20.1959C119.451 22.5979 118.801 24.5096 117.451 25.8332C116.101 27.2057 114.301 27.843 111.951 27.843C109.601 27.843 107.751 27.1567 106.401 25.7841C105.051 24.4116 104.351 22.4998 104.351 20.1469C104.351 17.7449 105.001 15.8822 106.351 14.5586C107.701 13.2351 109.551 12.5488 111.951 12.5488C114.201 12.4998 116.001 13.1861 117.401 14.6077C118.801 16.0292 119.501 17.892 119.451 20.1959ZM114.151 20.2449C114.151 18.9214 114.001 17.99 113.651 17.3528C113.301 16.7155 112.751 16.4214 111.951 16.4214C111.151 16.4214 110.601 16.7155 110.251 17.3528C109.901 17.99 109.701 18.9704 109.701 20.2449C109.701 21.5194 109.901 22.4998 110.251 23.1861C110.601 23.8233 111.201 24.1665 111.951 24.1665C112.701 24.1665 113.301 23.8233 113.651 23.1861C114.001 22.4998 114.151 21.5194 114.151 20.2449Z" fill="#552B9A"/>
<path d="M127.65 14.7547C128.65 13.2841 129.95 12.5978 131.6 12.5978C133.25 12.5978 134.6 13.2841 135.55 14.6076C136.5 15.9802 137 17.8429 137 20.2449C137 22.6468 136.5 24.5096 135.55 25.8821C134.6 27.2547 133.25 27.941 131.5 27.941C130.5 27.941 129.6 27.7449 128.85 27.3037C128.5 27.0586 128.1 26.7155 127.65 26.2253H127.35L126.5 27.6959H122.45V7.30371H127.65V11.9116C127.65 12.4508 127.6 13.3821 127.45 14.7547H127.65ZM131.7 20.1468C131.7 17.7939 131.05 16.5684 129.75 16.5684C129 16.5684 128.5 16.8135 128.15 17.3037C127.8 17.7939 127.65 18.5782 127.65 19.6567V20.3919C127.65 21.6174 127.8 22.4508 128.15 22.99C128.5 23.5292 129.05 23.7743 129.8 23.7743C130.4 23.7743 130.9 23.4802 131.2 22.8429C131.55 22.2547 131.7 21.3233 131.7 20.1468Z" fill="#552B9A"/>
<path d="M149.1 12.5981C149.45 12.5981 149.95 12.6472 150.7 12.7452L150.25 17.5491C149.8 17.4511 149.2 17.4021 148.45 17.4021C146.3 17.4021 145.2 18.3825 145.2 20.3923V27.6472H140V12.8432H143.9L144.7 15.1962H144.95C145.4 14.4119 146 13.7746 146.8 13.2844C147.55 12.8432 148.3 12.5981 149.1 12.5981Z" fill="#552B9A"/>
<path d="M158.25 9.16652C158.25 10.6371 157.3 11.4214 155.45 11.4214C153.6 11.4214 152.65 10.6861 152.65 9.16652C152.65 8.38221 152.85 7.79397 153.3 7.45084C153.75 7.05868 154.45 6.91162 155.4 6.91162C156.35 6.91162 157.05 7.1077 157.5 7.49986C158 7.84299 158.25 8.38221 158.25 9.16652ZM158 12.843V27.6469H152.8V12.843H158Z" fill="#552B9A"/>
<path d="M176.4 27.6469H171.2V19.5586C171.2 17.5978 170.6 16.5684 169.4 16.5684C168.55 16.5684 167.9 16.9116 167.5 17.5978C167.1 18.2841 166.9 19.4606 166.9 21.1273V27.5978H161.7V12.8429H165.65L166.3 14.6567H166.6C167.5 13.2841 169 12.5488 171.15 12.5488C172.8 12.5488 174.1 13.039 175.05 13.9704C176 14.9018 176.45 16.2743 176.45 17.99V27.6469H176.4Z" fill="#552B9A"/>
<path d="M184.851 12.5978C185.701 12.5978 186.451 12.7449 187.101 13.088C187.751 13.4312 188.301 13.9704 188.851 14.7547H188.951C188.801 13.5782 188.701 12.4018 188.701 11.2743V7.30371H193.951V27.6469H190.001L188.901 25.7841H188.701C187.801 27.2057 186.451 27.941 184.701 27.941C183.101 27.99 181.801 27.3037 180.801 25.9312C179.801 24.5586 179.351 22.6469 179.351 20.2939C179.351 17.8919 179.851 16.0292 180.851 14.7057C181.851 13.3821 183.101 12.5978 184.851 12.5978ZM185.101 17.6468C184.701 18.2841 184.551 19.1665 184.551 20.3429C184.551 21.5194 184.751 22.4018 185.101 22.99C185.501 23.5782 186.051 23.8723 186.801 23.8723C187.551 23.8723 188.101 23.6272 188.451 23.137C188.801 22.6469 189.001 21.8135 189.001 20.7351V20.3429C189.001 19.0684 188.801 18.137 188.451 17.5488C188.051 17.0096 187.451 16.7155 186.651 16.7155C186.001 16.7155 185.501 17.0096 185.101 17.6468Z" fill="#552B9A"/>
<path d="M204.75 27.892C202.25 27.892 200.3 27.2547 198.9 25.9312C197.5 24.6077 196.8 22.6959 196.8 20.2449C196.8 17.7939 197.45 15.8822 198.7 14.5586C200 13.2351 201.8 12.5488 204.15 12.5488C206.5 12.5488 208.3 13.1371 209.5 14.3135C210.75 15.49 211.35 17.1567 211.35 19.3135V21.5684H202.05C202.1 22.4018 202.4 23.039 202.95 23.5292C203.55 24.0194 204.3 24.2155 205.25 24.2155C206.2 24.2155 207.05 24.1175 207.85 23.9704C208.65 23.8233 209.45 23.5292 210.35 23.088V26.7645C209.55 27.1567 208.75 27.4508 207.85 27.5978C207.05 27.8429 206 27.892 204.75 27.892ZM206.05 16.7155C205.65 16.2743 205.15 16.0782 204.45 16.0782C203.8 16.0782 203.25 16.2743 202.85 16.6665C202.45 17.0586 202.2 17.6469 202.15 18.4312H206.6C206.65 17.6959 206.45 17.1077 206.05 16.7155Z" fill="#552B9A"/>
<path d="M224.5 19.6568C225.5 20.4411 226 21.6176 226 23.1372C226 24.7058 225.45 25.8823 224.35 26.6666C223.25 27.4999 221.65 27.8921 219.6 27.8921C218.5 27.8921 217.5 27.8431 216.7 27.696C215.85 27.598 215.05 27.3529 214.15 27.0587V22.9901C215 23.3823 215.9 23.6274 216.85 23.8725C217.8 24.1176 218.65 24.2156 219.4 24.2156C220.55 24.2156 221.1 23.9705 221.1 23.4803C221.1 23.2352 220.95 22.9901 220.65 22.794C220.35 22.598 219.4 22.2058 217.9 21.6176C216.5 21.0293 215.55 20.3921 215 19.7058C214.45 19.0195 214.2 18.0881 214.2 17.0097C214.2 15.6372 214.75 14.5587 215.85 13.8234C216.95 13.0391 218.4 12.647 220.3 12.647C222.15 12.647 224.05 13.0881 226 13.9215L224.6 17.2058C223.9 16.9117 223.15 16.6176 222.4 16.4215C221.65 16.2254 221 16.0783 220.5 16.0783C219.65 16.0783 219.25 16.2744 219.25 16.6666C219.25 16.9117 219.4 17.1568 219.7 17.3038C220 17.4999 220.85 17.8431 222.3 18.3823C223.2 18.8234 223.95 19.2156 224.5 19.6568Z" fill="#552B9A"/>
<path d="M62.8559 38.6208V39.1905H61.5774V43.4636H60.8219V39.1905H59.9502V38.8487L60.8219 38.5638V38.2789C60.8219 37.0824 61.3449 36.5127 62.391 36.5127C62.6816 36.5127 62.9721 36.5697 63.3208 36.6836L63.1465 37.2534C62.8559 37.1394 62.6235 37.1394 62.391 37.1394C62.1004 37.1394 61.9261 37.2534 61.7517 37.4243C61.6355 37.5952 61.5774 37.8801 61.5774 38.3359V38.6777H62.8559V38.6208Z" fill="#552B9A"/>
<path d="M65.994 38.564C66.2265 38.564 66.4008 38.564 66.5751 38.6209L66.4589 39.3046C66.2846 39.2477 66.1102 39.2477 65.9359 39.2477C65.5291 39.2477 65.1804 39.4186 64.8898 39.7035C64.5992 40.0453 64.483 40.4441 64.483 40.8999V43.5208H63.7275V38.6779H64.3668L64.4249 39.5895H64.483C64.6574 39.2477 64.8898 39.0198 65.1223 38.8488C65.4129 38.6209 65.7034 38.564 65.994 38.564Z" fill="#552B9A"/>
<path d="M67.6798 39.1905C68.0866 38.7347 68.6096 38.5068 69.3651 38.5068C70.1206 38.5068 70.6436 38.7347 71.0504 39.1905C71.4572 39.6463 71.6897 40.2731 71.6897 41.0137C71.6897 41.8114 71.4572 42.3811 71.0504 42.8369C70.6436 43.2927 70.0625 43.5206 69.3651 43.5206C68.6677 43.5206 68.1447 43.2927 67.7379 42.8369C67.3311 42.3811 67.0986 41.7544 67.0986 41.0137C67.0986 40.2731 67.273 39.6463 67.6798 39.1905ZM69.307 39.1905C68.319 39.1905 67.8541 39.8173 67.8541 41.0707C67.8541 41.6974 67.9703 42.1532 68.2609 42.4951C68.4934 42.8369 68.9002 43.0079 69.3651 43.0079C69.83 43.0079 70.2368 42.8369 70.4693 42.5521C70.7017 42.2102 70.8761 41.7544 70.8761 41.1277C70.8761 40.501 70.7598 40.0452 70.4693 39.7033C70.1787 39.3045 69.83 39.1905 69.307 39.1905Z" fill="#552B9A"/>
<path d="M79.9411 43.4638H79.1856V40.3302C79.1856 39.5895 78.8369 39.1907 78.1395 39.1907C77.6746 39.1907 77.3259 39.3046 77.0934 39.5895C76.861 39.8744 76.7448 40.2732 76.7448 40.786V43.4638H75.9893V40.3302C75.9893 39.9314 75.9312 39.6465 75.7568 39.4756C75.5825 39.3046 75.35 39.1907 74.9432 39.1907C74.4783 39.1907 74.1296 39.3046 73.8971 39.5895C73.6647 39.8744 73.5485 40.3302 73.5485 40.9569V43.5208H72.793V38.6779H73.4322L73.5485 39.3616H73.6066C73.7228 39.1337 73.9553 38.9628 74.1877 38.7919C74.4202 38.6779 74.7107 38.6209 75.0594 38.6209C75.8149 38.6209 76.338 38.9058 76.5704 39.4186H76.6285C76.8029 39.1907 76.9772 38.9628 77.2678 38.7919C77.5584 38.6209 77.8489 38.564 78.1976 38.564C78.7788 38.564 79.1856 38.7349 79.4761 38.9628C79.7667 39.2477 79.8829 39.7035 79.8829 40.3302V43.4638H79.9411Z" fill="#552B9A"/>
<path d="M82.4411 39.5322C82.3248 39.6462 82.2086 39.7032 82.0343 39.7032C81.8599 39.7032 81.7437 39.6462 81.6275 39.5322C81.5112 39.4183 81.5112 39.3043 81.5112 39.0764C81.5112 38.6776 81.6856 38.4497 82.0343 38.4497C82.3829 38.4497 82.6154 38.6776 82.6154 39.0764C82.5573 39.3043 82.4992 39.4183 82.4411 39.5322ZM82.4411 43.4635C82.3248 43.5775 82.2086 43.6344 82.0343 43.6344C81.8599 43.6344 81.7437 43.5775 81.6275 43.4635C81.5112 43.3496 81.4531 43.2356 81.4531 43.0077C81.4531 42.7798 81.5112 42.6659 81.5694 42.5519C81.6856 42.438 81.8018 42.381 81.9762 42.381C82.1505 42.381 82.2667 42.438 82.383 42.5519C82.4992 42.6659 82.4992 42.7798 82.4992 43.0077C82.4992 43.2356 82.4992 43.3496 82.4411 43.4635Z" fill="#552B9A"/>
<path d="M91.6225 43.4635H90.7507L89.8209 40.6147C89.7628 40.3868 89.6466 39.988 89.4722 39.4183H89.4141C89.2979 39.931 89.1817 40.3299 89.1235 40.6147L88.1937 43.4635H87.322L85.9854 38.6206H86.7408C87.1476 40.045 87.3801 41.0705 87.4963 41.5833C87.6126 42.0961 87.7288 42.4949 87.7288 42.7228H87.7869C87.845 42.4949 87.9031 42.267 87.9613 41.9821C88.0194 41.6972 88.0775 41.5263 88.1356 41.4124L89.0654 38.6206H89.879L90.7507 41.4124C90.9251 41.9251 91.0413 42.324 91.0994 42.6658H91.1575C91.1575 42.5519 91.2157 42.324 91.2738 42.0391C91.3319 41.7542 91.6225 40.6147 92.1455 38.6206H92.901L91.6225 43.4635Z" fill="#552B9A"/>
<path d="M94.2374 39.1905C94.6442 38.7347 95.1673 38.5068 95.9228 38.5068C96.6201 38.5068 97.2013 38.7347 97.6081 39.1905C98.0149 39.6463 98.2474 40.2731 98.2474 41.0137C98.2474 41.8114 98.0149 42.3811 97.6081 42.8369C97.2013 43.2927 96.6201 43.5206 95.9228 43.5206C95.2254 43.5206 94.7024 43.2927 94.2956 42.8369C93.8888 42.3811 93.6563 41.7544 93.6563 41.0137C93.5982 40.2731 93.8306 39.6463 94.2374 39.1905ZM95.8647 39.1905C94.8767 39.1905 94.4118 39.8173 94.4118 41.0707C94.4118 41.6974 94.528 42.1532 94.8186 42.4951C95.051 42.8369 95.4579 43.0079 95.9228 43.0079C96.3877 43.0079 96.7945 42.8369 97.0269 42.5521C97.2594 42.2102 97.4337 41.7544 97.4337 41.1277C97.4337 40.501 97.3175 40.0452 97.0269 39.7033C96.7364 39.3045 96.3877 39.1905 95.8647 39.1905Z" fill="#552B9A"/>
<path d="M106.5 43.4638H105.744V40.3302C105.744 39.5895 105.395 39.1907 104.698 39.1907C104.233 39.1907 103.884 39.3046 103.652 39.5895C103.42 39.8744 103.303 40.2732 103.303 40.786V43.4638H102.548V40.3302C102.548 39.9314 102.49 39.6465 102.315 39.4756C102.141 39.3046 101.909 39.1907 101.502 39.1907C101.037 39.1907 100.688 39.3046 100.456 39.5895C100.223 39.8744 100.107 40.3302 100.107 40.9569V43.5208H99.3516V38.6779H99.9908L100.107 39.3616H100.165C100.281 39.1337 100.514 38.9628 100.746 38.7919C100.979 38.6779 101.269 38.6209 101.618 38.6209C102.374 38.6209 102.897 38.9058 103.129 39.4186H103.187C103.361 39.1907 103.536 38.9628 103.826 38.7919C104.117 38.6209 104.408 38.564 104.756 38.564C105.337 38.564 105.744 38.7349 106.035 38.9628C106.325 39.2477 106.442 39.7035 106.442 40.3302V43.4638H106.5Z" fill="#552B9A"/>
<path d="M111.614 43.4637H111.033L110.858 42.78H110.8C110.568 43.0648 110.335 43.2927 110.045 43.4067C109.812 43.5206 109.522 43.5776 109.115 43.5776C108.65 43.5776 108.243 43.4637 107.953 43.1788C107.662 42.9509 107.546 42.5521 107.546 42.0963C107.546 41.1277 108.359 40.6149 109.929 40.5579H110.742V40.2731C110.742 39.8742 110.684 39.5894 110.51 39.4184C110.335 39.2475 110.045 39.1336 109.696 39.1336C109.347 39.1336 108.824 39.2475 108.359 39.4754L108.127 38.9057C108.65 38.6208 109.231 38.5068 109.812 38.5068C110.394 38.5068 110.858 38.6208 111.149 38.9057C111.44 39.1905 111.556 39.5894 111.556 40.1591V43.4637H111.614ZM108.476 42.1532C108.476 42.4381 108.534 42.609 108.708 42.78C108.883 42.9509 109.115 43.0079 109.406 43.0079C109.87 43.0079 110.219 42.8939 110.51 42.609C110.8 42.3811 110.917 41.9823 110.917 41.5835V41.1277L110.161 41.1847C109.58 41.1847 109.115 41.2986 108.883 41.4695C108.592 41.5835 108.476 41.8114 108.476 42.1532Z" fill="#552B9A"/>
<path d="M113.88 43.4635H113.125V36.6265H113.88V40.2729C113.88 40.4438 113.88 40.7287 113.822 41.0135H113.88C113.997 40.8426 114.229 40.6147 114.462 40.3298L116.031 38.6776H116.902L114.927 40.7287L117.077 43.5204H116.147L114.404 41.2414L113.822 41.6972V43.4635H113.88Z" fill="#552B9A"/>
<path d="M119.925 43.5778C119.169 43.5778 118.588 43.3499 118.181 42.951C117.774 42.4952 117.542 41.9255 117.542 41.1278C117.542 40.3302 117.716 39.7035 118.123 39.2477C118.53 38.7919 119.053 38.564 119.692 38.564C120.331 38.564 120.855 38.7919 121.203 39.1907C121.552 39.5895 121.726 40.1023 121.726 40.786V41.2418H118.297C118.297 41.8115 118.472 42.2673 118.762 42.5522C119.053 42.8371 119.46 43.008 119.983 43.008C120.506 43.008 121.029 42.8941 121.552 42.6662V43.2929C121.319 43.4068 121.029 43.4638 120.796 43.5208C120.506 43.5208 120.215 43.5778 119.925 43.5778ZM120.913 40.6151C120.913 40.1593 120.796 39.8174 120.622 39.5325C120.39 39.3046 120.099 39.1907 119.692 39.1907C119.285 39.1907 118.995 39.3046 118.762 39.5895C118.53 39.8174 118.356 40.2162 118.356 40.6151H120.913Z" fill="#552B9A"/>
<path d="M125.271 38.564C125.504 38.564 125.678 38.564 125.852 38.6209L125.736 39.3046C125.562 39.2477 125.388 39.2477 125.213 39.2477C124.806 39.2477 124.458 39.4186 124.167 39.7035C123.877 40.0453 123.76 40.4441 123.76 40.8999V43.5208H123.005V38.6779H123.644L123.702 39.5895H123.76C123.935 39.2477 124.167 39.0198 124.4 38.8488C124.632 38.6209 124.923 38.564 125.271 38.564Z" fill="#552B9A"/>
<path d="M129.92 42.1532C129.92 42.609 129.746 42.9509 129.397 43.1788C129.049 43.4067 128.584 43.5206 127.945 43.5206C127.305 43.5206 126.782 43.4067 126.434 43.2358V42.5521C126.957 42.78 127.48 42.9509 128.003 42.9509C128.816 42.9509 129.223 42.723 129.223 42.2102C129.223 42.0393 129.165 41.8684 128.991 41.6974C128.816 41.5835 128.526 41.4126 128.061 41.2416C127.596 41.0707 127.247 40.8998 127.073 40.7858C126.666 40.5579 126.492 40.2161 126.492 39.8173C126.492 39.4184 126.666 39.0766 126.957 38.8487C127.305 38.6208 127.712 38.5068 128.293 38.5068C128.874 38.5068 129.397 38.6208 129.862 38.8487L129.572 39.4754C129.107 39.2475 128.642 39.1905 128.293 39.1905C127.886 39.1905 127.654 39.2475 127.48 39.3615C127.305 39.4754 127.189 39.6463 127.189 39.8173C127.189 39.9312 127.247 40.0452 127.305 40.1591C127.363 40.2731 127.48 40.33 127.654 40.444C127.828 40.501 128.119 40.6719 128.526 40.7858C129.107 41.0137 129.514 41.1847 129.688 41.4126C129.862 41.5835 129.92 41.8114 129.92 42.1532Z" fill="#552B9A"/>
<path d="M133.116 43.5778C132.419 43.5778 131.838 43.3499 131.431 42.951C131.024 42.4952 130.85 41.9255 130.85 41.1278C130.85 40.3302 131.024 39.7035 131.431 39.2477C131.838 38.7919 132.419 38.564 133.116 38.564C133.349 38.564 133.581 38.564 133.813 38.6209C134.046 38.6779 134.22 38.7349 134.395 38.7919L134.162 39.4186C133.813 39.2477 133.465 39.1907 133.116 39.1907C132.128 39.1907 131.605 39.8174 131.605 41.0709C131.605 41.6976 131.721 42.1534 131.954 42.4383C132.186 42.7801 132.535 42.8941 133.058 42.8941C133.465 42.8941 133.872 42.7801 134.336 42.6092V43.2359C134.046 43.4638 133.639 43.5778 133.116 43.5778Z" fill="#552B9A"/>
<path d="M135.848 39.1905C136.255 38.7347 136.778 38.5068 137.533 38.5068C138.289 38.5068 138.812 38.7347 139.218 39.1905C139.625 39.6463 139.858 40.2731 139.858 41.0137C139.858 41.8114 139.625 42.3811 139.218 42.8369C138.812 43.2927 138.23 43.5206 137.533 43.5206C136.836 43.5206 136.313 43.2927 135.906 42.8369C135.499 42.3811 135.267 41.7544 135.267 41.0137C135.267 40.2731 135.499 39.6463 135.848 39.1905ZM137.533 39.1905C136.545 39.1905 136.08 39.8173 136.08 41.0707C136.08 41.6974 136.196 42.1532 136.487 42.4951C136.719 42.8369 137.126 43.0079 137.591 43.0079C138.056 43.0079 138.463 42.8369 138.695 42.5521C138.928 42.2102 139.102 41.7544 139.102 41.1277C139.102 40.501 138.986 40.0452 138.695 39.7033C138.405 39.3045 137.998 39.1905 137.533 39.1905Z" fill="#552B9A"/>
<path d="M142.937 43.5777C142.298 43.5777 141.775 43.3498 141.426 42.951C141.078 42.4952 140.903 41.8685 140.903 41.1278C140.903 40.3302 141.078 39.7034 141.426 39.2476C141.775 38.7918 142.298 38.5639 142.937 38.5639C143.577 38.5639 144.1 38.7918 144.448 39.2476H144.506L144.448 38.9058V38.5639V36.5698H145.204V43.4638H144.623L144.506 42.8371H144.448C144.1 43.2929 143.577 43.5777 142.937 43.5777ZM141.949 39.6465C141.717 39.9883 141.601 40.4441 141.601 41.0708C141.601 41.6976 141.717 42.1534 141.949 42.4952C142.182 42.8371 142.531 42.951 142.995 42.951C143.518 42.951 143.867 42.8371 144.1 42.5522C144.332 42.2673 144.448 41.8115 144.448 41.2418V41.0708C144.448 40.3871 144.332 39.8744 144.1 39.5895C143.867 39.3046 143.518 39.1337 142.995 39.1337C142.531 39.1337 142.182 39.3046 141.949 39.6465Z" fill="#552B9A"/>
<path d="M148.865 43.5778C148.11 43.5778 147.528 43.3499 147.122 42.951C146.715 42.4952 146.482 41.9255 146.482 41.1278C146.482 40.3302 146.657 39.7035 147.064 39.2477C147.47 38.7919 147.993 38.564 148.633 38.564C149.272 38.564 149.795 38.7919 150.144 39.1907C150.492 39.5895 150.667 40.1023 150.667 40.786V41.2418H147.238C147.238 41.8115 147.412 42.2673 147.703 42.5522C147.993 42.8371 148.4 43.008 148.923 43.008C149.446 43.008 149.969 42.8941 150.492 42.6662V43.2929C150.26 43.4068 149.969 43.4638 149.737 43.5208C149.446 43.5208 149.156 43.5778 148.865 43.5778ZM149.853 40.6151C149.853 40.1593 149.737 39.8174 149.563 39.5325C149.33 39.3046 149.039 39.1907 148.633 39.1907C148.226 39.1907 147.935 39.3046 147.703 39.5895C147.47 39.8174 147.296 40.2162 147.296 40.6151H149.853Z" fill="#552B9A"/>
</g>
<defs>
<clipPath id="clip0">
<rect width="226" height="50" fill="white"/>
</clipPath>
</defs>
</svg>
