<svg width="42" height="51" viewBox="0 0 42 51" fill="none" xmlns="http://www.w3.org/2000/svg">
<path d="M37.8924 50.9813H3.66701C1.66238 50.9813 0 49.3151 0 47.3058V13.0005C0 10.9911 1.66238 9.32489 3.66701 9.32489H37.8924C39.8971 9.32489 41.5594 10.9911 41.5594 13.0005V47.3058C41.5594 49.3151 39.8971 50.9813 37.8924 50.9813ZM3.66701 11.7753C2.9825 11.7753 2.44467 12.3144 2.44467 13.0005V47.3058C2.44467 47.9919 2.9825 48.531 3.66701 48.531H37.8924C38.5769 48.531 39.1148 47.9919 39.1148 47.3058V13.0005C39.1148 12.3144 38.5769 11.7753 37.8924 11.7753H3.66701Z" fill="#552B9A"/>
<path d="M30.9007 2.41486C32.8076 4.32615 32.8076 7.41363 30.9007 9.32493L20.5353 19.7635L10.1699 9.37393C8.26303 7.46264 8.26303 4.37516 10.1699 2.46386C12.0767 0.50356 15.157 0.50356 17.0639 2.41486L20.5353 5.89439L24.0067 2.41486C25.9136 0.50356 28.9939 0.50356 30.9007 2.41486Z" fill="#D33741"/>
</svg>
