<svg width="40" height="40" viewBox="0 0 40 40" fill="none" xmlns="http://www.w3.org/2000/svg">
<circle cx="20" cy="20" r="20" fill="#D33741"/>
<g clip-path="url(#clip0)">
<path d="M16.9332 26.4251C12.2666 27.8251 12.2666 24.0918 10.3999 23.6251M23.4666 29.2251V25.6131C23.5016 25.1681 23.4414 24.7207 23.2902 24.3006C23.1389 23.8806 22.9 23.4976 22.5892 23.1771C25.5199 22.8504 28.5999 21.7398 28.5999 16.6438C28.5997 15.3407 28.0984 14.0876 27.1999 13.1438C27.6254 12.0037 27.5953 10.7436 27.1159 9.6251C27.1159 9.6251 26.0146 9.29844 23.4666 11.0064C21.3274 10.4267 19.0724 10.4267 16.9332 11.0064C14.3852 9.29844 13.2839 9.6251 13.2839 9.6251C12.8045 10.7436 12.7744 12.0037 13.1999 13.1438C12.2947 14.0946 11.7929 15.359 11.7999 16.6718C11.7999 21.7304 14.8799 22.8411 17.8106 23.2051C17.5035 23.5224 17.2667 23.9008 17.1155 24.3157C16.9644 24.7306 16.9023 25.1726 16.9332 25.6131V29.2251" stroke="white" stroke-width="2" stroke-linecap="round" stroke-linejoin="round"/>
</g>
<defs>
<clipPath id="clip0">
<rect x="8" y="8" width="22.4" height="22.4" fill="white"/>
</clipPath>
</defs>
</svg>
