<svg width="40" height="40" viewBox="0 0 40 40" fill="none" xmlns="http://www.w3.org/2000/svg">
<circle cx="20" cy="20" r="20" fill="#D33741"/>
<path d="M24.6665 10.6665H15.3332C12.7558 10.6665 10.6665 12.7558 10.6665 15.3332V24.6665C10.6665 27.2438 12.7558 29.3332 15.3332 29.3332H24.6665C27.2438 29.3332 29.3332 27.2438 29.3332 24.6665V15.3332C29.3332 12.7558 27.2438 10.6665 24.6665 10.6665Z" stroke="white" stroke-width="2" stroke-linecap="round" stroke-linejoin="round"/>
<path d="M23.7334 19.4118C23.8486 20.1886 23.7159 20.9819 23.3543 21.6789C22.9926 22.3759 22.4204 22.9411 21.7189 23.2942C21.0175 23.6472 20.2226 23.7701 19.4474 23.6453C18.6721 23.5206 17.9559 23.1545 17.4006 22.5993C16.8453 22.044 16.4793 21.3278 16.3545 20.5525C16.2298 19.7772 16.3527 18.9824 16.7057 18.2809C17.0588 17.5795 17.624 17.0073 18.321 16.6456C19.018 16.284 19.8113 16.1513 20.5881 16.2665C21.3804 16.384 22.1139 16.7532 22.6803 17.3195C23.2467 17.8859 23.6159 18.6195 23.7334 19.4118Z" stroke="white" stroke-width="2" stroke-linecap="round" stroke-linejoin="round"/>
<path d="M25.1333 14.8662H25.1446" stroke="white" stroke-width="2" stroke-linecap="round" stroke-linejoin="round"/>
</svg>
