<svg width="182" height="42" viewBox="0 0 182 42" fill="none" xmlns="http://www.w3.org/2000/svg">
<g clip-path="url(#clip0)">
<path d="M31.2058 42H3.01991C1.36903 42 0 40.6 0 38.9118V10.0882C0 8.4 1.36903 7 3.01991 7H31.2058C32.8566 7 34.2257 8.4 34.2257 10.0882V38.9118C34.2257 40.6 32.8566 42 31.2058 42ZM3.01991 9.05882C2.45619 9.05882 2.01327 9.51176 2.01327 10.0882V38.9118C2.01327 39.4882 2.45619 39.9412 3.01991 39.9412H31.2058C31.7695 39.9412 32.2124 39.4882 32.2124 38.9118V10.0882C32.2124 9.51176 31.7695 9.05882 31.2058 9.05882H3.01991Z" fill="#552B9A"/>
<path d="M25.4478 1.19416C27.0182 2.80004 27.0182 5.39416 25.4478 7.00004L16.9116 15.7706L8.37528 7.04122C6.80492 5.43533 6.80492 2.84122 8.37528 1.23533C9.94563 -0.411724 12.4824 -0.411724 14.0527 1.19416L16.9116 4.11769L19.7704 1.19416C21.3408 -0.411724 23.8775 -0.411724 25.4478 1.19416Z" fill="#D33741"/>
<path d="M59.7942 23.2237H56.8951L56.0898 21.5766H55.969C55.4053 22.2766 54.8416 22.7708 54.2376 23.059C53.6336 23.3472 52.8686 23.4708 51.9425 23.4708C50.7748 23.4708 49.8889 23.1002 49.2447 22.4002C48.6004 21.7002 48.2783 20.7119 48.2783 19.4355C48.2783 16.8825 50.05 15.5237 53.5531 15.4002L55.6066 15.3178V15.1531C55.6066 14.1237 55.1234 13.6296 54.1168 13.6296C53.231 13.6296 52.1035 13.9178 50.7345 14.5355L49.5265 11.6943C50.9358 10.9531 52.7478 10.5825 54.8819 10.5825C56.4522 10.5825 57.6602 10.9943 58.5058 11.7766C59.3513 12.559 59.7942 13.6708 59.7942 15.0708V23.2237ZM52.5867 19.2708C52.5867 20.0531 52.9894 20.4237 53.7947 20.4237C54.3181 20.4237 54.7208 20.259 55.0832 19.9296C55.4456 19.6002 55.6066 19.1884 55.6066 18.6531V17.706L54.6403 17.7472C53.2712 17.7884 52.5867 18.2825 52.5867 19.2708Z" fill="#552B9A"/>
<path d="M81.7389 23.2236H77.5513V16.4707C77.5513 15.606 77.4305 14.9883 77.2292 14.5766C76.9876 14.1648 76.6655 13.9589 76.142 13.9589C75.4978 13.9589 75.0146 14.2471 74.7327 14.7824C74.4509 15.3589 74.2898 16.2236 74.2898 17.4177V23.2236H70.0619V16.4707C70.0619 15.606 69.9411 14.9883 69.7398 14.5766C69.5385 14.1648 69.1761 13.9589 68.6929 13.9589C68.0084 13.9589 67.5252 14.2471 67.2433 14.8648C66.9615 15.4824 66.8004 16.4295 66.8004 17.7883V23.2236H62.6128V10.7883H65.7938L66.3172 12.3118H66.5588C66.8809 11.7354 67.3239 11.3236 67.9278 10.9942C68.5318 10.706 69.2566 10.5413 70.0216 10.5413C71.7933 10.5413 73.0013 11.0766 73.7261 12.1883H74.0482C74.3703 11.6942 74.8535 11.2824 75.4978 10.9942C76.1017 10.706 76.7862 10.5413 77.511 10.5413C78.9203 10.5413 80.0075 10.9118 80.692 11.653C81.3765 12.3942 81.7389 13.5471 81.7389 15.1118V23.2236Z" fill="#552B9A"/>
<path d="M96.1942 16.9647C96.1942 18.9823 95.6708 20.5882 94.5836 21.6999C93.4964 22.8529 92.0469 23.3882 90.1544 23.3882C88.2619 23.3882 86.7721 22.8117 85.6849 21.6588C84.5978 20.5058 84.0341 18.8999 84.0341 16.9235C84.0341 14.9058 84.5575 13.3411 85.6447 12.2294C86.7318 11.1176 88.2217 10.5411 90.1544 10.5411C91.9664 10.4999 93.4159 11.0764 94.5434 12.2705C95.6708 13.4647 96.2345 15.0294 96.1942 16.9647ZM91.9261 17.0058C91.9261 15.8941 91.8053 15.1117 91.5234 14.5764C91.2416 14.0411 90.7987 13.7941 90.1544 13.7941C89.5102 13.7941 89.0672 14.0411 88.7854 14.5764C88.5035 15.1117 88.3425 15.9352 88.3425 17.0058C88.3425 18.0764 88.5035 18.8999 88.7854 19.4764C89.0672 20.0117 89.5504 20.2999 90.1544 20.2999C90.7584 20.2999 91.2416 20.0117 91.5234 19.4764C91.8053 18.8999 91.9261 18.0764 91.9261 17.0058Z" fill="#552B9A"/>
<path d="M102.798 12.3941C103.603 11.1588 104.65 10.5823 105.979 10.5823C107.307 10.5823 108.395 11.1588 109.16 12.2705C109.925 13.4235 110.327 14.9882 110.327 17.0058C110.327 19.0235 109.925 20.5882 109.16 21.7411C108.395 22.8941 107.307 23.4705 105.898 23.4705C105.093 23.4705 104.368 23.3058 103.764 22.9353C103.482 22.7294 103.16 22.4411 102.798 22.0294H102.556L101.872 23.2647H98.6101V6.13525H102.798V10.0058C102.798 10.4588 102.757 11.2411 102.637 12.3941H102.798ZM106.059 16.9235C106.059 14.947 105.536 13.9176 104.489 13.9176C103.885 13.9176 103.482 14.1235 103.2 14.5353C102.919 14.947 102.798 15.6058 102.798 16.5117V17.1294C102.798 18.1588 102.919 18.8588 103.2 19.3117C103.482 19.7647 103.925 19.9705 104.529 19.9705C105.012 19.9705 105.415 19.7235 105.657 19.1882C105.938 18.6941 106.059 17.9117 106.059 16.9235Z" fill="#552B9A"/>
<path d="M120.072 10.5825C120.354 10.5825 120.756 10.6237 121.36 10.706L120.998 14.7413C120.635 14.659 120.152 14.6178 119.548 14.6178C117.817 14.6178 116.931 15.4413 116.931 17.1296V23.2237H112.743V10.7884H115.884L116.528 12.7649H116.73C117.092 12.106 117.575 11.5708 118.22 11.159C118.823 10.7884 119.427 10.5825 120.072 10.5825Z" fill="#552B9A"/>
<path d="M127.44 7.70003C127.44 8.93532 126.675 9.59414 125.185 9.59414C123.695 9.59414 122.93 8.9765 122.93 7.70003C122.93 7.0412 123.091 6.54708 123.454 6.25885C123.816 5.92944 124.38 5.80591 125.145 5.80591C125.91 5.80591 126.474 5.97061 126.836 6.30003C127.239 6.58826 127.44 7.0412 127.44 7.70003ZM127.239 10.7883V23.2236H123.051V10.7883H127.239Z" fill="#552B9A"/>
<path d="M142.057 23.2236H137.869V16.4295C137.869 14.7824 137.386 13.9177 136.419 13.9177C135.735 13.9177 135.211 14.206 134.889 14.7824C134.567 15.3589 134.406 16.3471 134.406 17.7471V23.1824H130.219V10.7883H133.399L133.923 12.3118H134.165C134.889 11.1589 136.097 10.5413 137.829 10.5413C139.157 10.5413 140.204 10.953 140.969 11.7354C141.734 12.5177 142.097 13.6707 142.097 15.1118V23.2236H142.057Z" fill="#552B9A"/>
<path d="M148.861 10.5823C149.546 10.5823 150.15 10.7058 150.673 10.9941C151.197 11.2823 151.64 11.7353 152.083 12.3941H152.163C152.042 11.4058 151.962 10.4176 151.962 9.47055V6.13525H156.19V23.2235H153.009L152.123 21.6588H151.962C151.237 22.8529 150.15 23.4705 148.741 23.4705C147.452 23.5117 146.405 22.9353 145.6 21.7823C144.795 20.6294 144.432 19.0235 144.432 17.047C144.432 15.0294 144.835 13.4647 145.64 12.3529C146.446 11.2411 147.452 10.5823 148.861 10.5823ZM149.063 14.8235C148.741 15.3588 148.62 16.1 148.62 17.0882C148.62 18.0764 148.781 18.8176 149.063 19.3117C149.385 19.8058 149.828 20.0529 150.432 20.0529C151.036 20.0529 151.479 19.847 151.761 19.4353C152.042 19.0235 152.204 18.3235 152.204 17.4176V17.0882C152.204 16.0176 152.042 15.2353 151.761 14.7411C151.438 14.2882 150.955 14.0411 150.311 14.0411C149.788 14.0411 149.385 14.2882 149.063 14.8235Z" fill="#552B9A"/>
<path d="M164.887 23.4295C162.874 23.4295 161.303 22.8942 160.176 21.7824C159.049 20.6707 158.485 19.0648 158.485 17.006C158.485 14.9471 159.008 13.3413 160.015 12.2295C161.062 11.1177 162.511 10.5413 164.404 10.5413C166.296 10.5413 167.746 11.0354 168.712 12.0236C169.719 13.0118 170.202 14.4118 170.202 16.2236V18.1177H162.713C162.753 18.8177 162.995 19.353 163.438 19.7648C163.921 20.1766 164.525 20.3413 165.29 20.3413C166.055 20.3413 166.739 20.2589 167.384 20.1354C168.028 20.0118 168.672 19.7648 169.397 19.3942V22.4824C168.753 22.8118 168.108 23.0589 167.384 23.1824C166.739 23.3883 165.894 23.4295 164.887 23.4295ZM165.934 14.0413C165.612 13.6707 165.209 13.506 164.645 13.506C164.122 13.506 163.679 13.6707 163.357 14.0001C163.035 14.3295 162.834 14.8236 162.793 15.4824H166.377C166.417 14.8648 166.256 14.3707 165.934 14.0413Z" fill="#552B9A"/>
<path d="M180.792 16.5118C181.597 17.1706 182 18.1588 182 19.4353C182 20.7529 181.557 21.7412 180.671 22.4C179.785 23.1 178.497 23.4294 176.846 23.4294C175.96 23.4294 175.155 23.3882 174.511 23.2647C173.826 23.1824 173.182 22.9765 172.457 22.7294V19.3118C173.142 19.6412 173.866 19.8471 174.631 20.0529C175.396 20.2588 176.081 20.3412 176.685 20.3412C177.611 20.3412 178.054 20.1353 178.054 19.7235C178.054 19.5177 177.933 19.3118 177.692 19.1471C177.45 18.9824 176.685 18.6529 175.477 18.1588C174.35 17.6647 173.584 17.1294 173.142 16.5529C172.699 15.9765 172.497 15.1941 172.497 14.2882C172.497 13.1353 172.94 12.2294 173.826 11.6118C174.712 10.9529 175.88 10.6235 177.41 10.6235C178.9 10.6235 180.43 10.9941 182 11.6941L180.873 14.4529C180.309 14.2059 179.705 13.9588 179.101 13.7941C178.497 13.6294 177.973 13.5059 177.571 13.5059C176.886 13.5059 176.564 13.6706 176.564 14C176.564 14.2059 176.685 14.4118 176.926 14.5353C177.168 14.7 177.853 14.9882 179.02 15.4412C179.745 15.8118 180.349 16.1412 180.792 16.5118Z" fill="#552B9A"/>
<path d="M50.6183 32.4414V32.92H49.5887V36.5094H48.9803V32.92H48.2783V32.6329L48.9803 32.3936V32.1543C48.9803 31.1492 49.4015 30.6707 50.2439 30.6707C50.4779 30.6707 50.7119 30.7185 50.9927 30.8142L50.8523 31.2928C50.6183 31.1971 50.4311 31.1971 50.2439 31.1971C50.0099 31.1971 49.8695 31.2928 49.7291 31.4364C49.6355 31.58 49.5887 31.8193 49.5887 32.2021V32.4893H50.6183V32.4414Z" fill="#552B9A"/>
<path d="M53.1455 32.3936C53.3327 32.3936 53.4731 32.3936 53.6135 32.4414L53.5199 33.0157C53.3795 32.9679 53.2391 32.9679 53.0987 32.9679C52.7711 32.9679 52.4903 33.1114 52.2563 33.3507C52.0223 33.6379 51.9287 33.9729 51.9287 34.3558V36.5573H51.3203V32.4893H51.8351L51.8819 33.255H51.9287C52.0691 32.9679 52.2563 32.7764 52.4435 32.6328C52.6775 32.4414 52.9115 32.3936 53.1455 32.3936Z" fill="#552B9A"/>
<path d="M54.5028 32.92C54.8304 32.5371 55.2516 32.3457 55.86 32.3457C56.4684 32.3457 56.8896 32.5371 57.2172 32.92C57.5448 33.3029 57.732 33.8293 57.732 34.4515C57.732 35.1215 57.5448 35.6001 57.2172 35.983C56.8896 36.3659 56.4216 36.5573 55.86 36.5573C55.2984 36.5573 54.8772 36.3659 54.5496 35.983C54.222 35.6001 54.0348 35.0737 54.0348 34.4515C54.0348 33.8293 54.1752 33.3029 54.5028 32.92ZM55.8132 32.92C55.0176 32.92 54.6432 33.4465 54.6432 34.4994C54.6432 35.0258 54.7368 35.4087 54.9708 35.6958C55.158 35.983 55.4856 36.1266 55.86 36.1266C56.2344 36.1266 56.562 35.983 56.7492 35.7437C56.9364 35.4565 57.0768 35.0737 57.0768 34.5472C57.0768 34.0208 56.9832 33.6379 56.7492 33.3507C56.5152 33.0157 56.2344 32.92 55.8132 32.92Z" fill="#552B9A"/>
<path d="M64.3775 36.5094H63.7691V33.8772C63.7691 33.255 63.4883 32.92 62.9267 32.92C62.5523 32.92 62.2715 33.0157 62.0843 33.255C61.8971 33.4943 61.8035 33.8293 61.8035 34.2601V36.5094H61.1951V33.8772C61.1951 33.5422 61.1483 33.3029 61.0079 33.1593C60.8675 33.0157 60.6803 32.92 60.3527 32.92C59.9783 32.92 59.6975 33.0157 59.5103 33.255C59.3231 33.4943 59.2295 33.8772 59.2295 34.4036V36.5573H58.6211V32.4893H59.1359L59.2295 33.0636H59.2763C59.3699 32.8721 59.5571 32.7286 59.7443 32.585C59.9315 32.4893 60.1655 32.4414 60.4463 32.4414C61.0547 32.4414 61.4759 32.6807 61.6631 33.1114H61.7099C61.8503 32.92 61.9907 32.7286 62.2247 32.585C62.4587 32.4414 62.6927 32.3936 62.9735 32.3936C63.4415 32.3936 63.7691 32.5371 64.0031 32.7286C64.2371 32.9679 64.3307 33.3507 64.3307 33.8772V36.5094H64.3775Z" fill="#552B9A"/>
<path d="M66.39 33.2072C66.2964 33.3029 66.2028 33.3507 66.0624 33.3507C65.922 33.3507 65.8284 33.3029 65.7348 33.2072C65.6412 33.1115 65.6412 33.0157 65.6412 32.8243C65.6412 32.4893 65.7816 32.2979 66.0624 32.2979C66.3432 32.2979 66.5303 32.4893 66.5303 32.8243C66.4836 33.0157 66.4368 33.1115 66.39 33.2072ZM66.39 36.5094C66.2964 36.6052 66.2028 36.653 66.0624 36.653C65.922 36.653 65.8284 36.6052 65.7348 36.5094C65.6412 36.4137 65.5944 36.318 65.5944 36.1266C65.5944 35.9351 65.6412 35.8394 65.688 35.7437C65.7816 35.648 65.8752 35.6001 66.0156 35.6001C66.156 35.6001 66.2496 35.648 66.3432 35.7437C66.4368 35.8394 66.4368 35.9351 66.4368 36.1266C66.4368 36.318 66.4368 36.4137 66.39 36.5094Z" fill="#552B9A"/>
<path d="M73.7844 36.5094H73.0824L72.3336 34.1165C72.2868 33.925 72.1932 33.59 72.0528 33.1114H72.006C71.9124 33.5422 71.8188 33.8772 71.772 34.1165L71.0232 36.5094H70.3212L69.2448 32.4414H69.8532C70.1808 33.6379 70.368 34.4993 70.4616 34.9301C70.5552 35.3608 70.6488 35.6958 70.6488 35.8872H70.6956C70.7424 35.6958 70.7892 35.5044 70.836 35.2651C70.8828 35.0258 70.9296 34.8822 70.9764 34.7865L71.7252 32.4414H72.3804L73.0824 34.7865C73.2228 35.2172 73.3164 35.5522 73.3632 35.8394H73.41C73.41 35.7437 73.4568 35.5522 73.5036 35.3129C73.5504 35.0736 73.7844 34.1165 74.2056 32.4414H74.814L73.7844 36.5094Z" fill="#552B9A"/>
<path d="M75.8904 32.92C76.218 32.5371 76.6392 32.3457 77.2476 32.3457C77.8092 32.3457 78.2772 32.5371 78.6048 32.92C78.9324 33.3029 79.1196 33.8293 79.1196 34.4515C79.1196 35.1215 78.9324 35.6001 78.6048 35.983C78.2772 36.3659 77.8092 36.5573 77.2476 36.5573C76.686 36.5573 76.2648 36.3659 75.9372 35.983C75.6096 35.6001 75.4224 35.0737 75.4224 34.4515C75.3756 33.8293 75.5628 33.3029 75.8904 32.92ZM77.2008 32.92C76.4052 32.92 76.0308 33.4465 76.0308 34.4994C76.0308 35.0258 76.1244 35.4087 76.3584 35.6958C76.5456 35.983 76.8732 36.1266 77.2476 36.1266C77.622 36.1266 77.9496 35.983 78.1368 35.7437C78.324 35.4565 78.4644 35.0737 78.4644 34.5472C78.4644 34.0208 78.3708 33.6379 78.1368 33.3507C77.9028 33.0157 77.622 32.92 77.2008 32.92Z" fill="#552B9A"/>
<path d="M85.7652 36.5094H85.1568V33.8772C85.1568 33.255 84.876 32.92 84.3144 32.92C83.94 32.92 83.6592 33.0157 83.472 33.255C83.2848 33.4943 83.1912 33.8293 83.1912 34.2601V36.5094H82.5828V33.8772C82.5828 33.5422 82.536 33.3029 82.3956 33.1593C82.2552 33.0157 82.068 32.92 81.7404 32.92C81.366 32.92 81.0852 33.0157 80.898 33.255C80.7108 33.4943 80.6172 33.8772 80.6172 34.4036V36.5573H80.0088V32.4893H80.5236L80.6172 33.0636H80.664C80.7576 32.8721 80.9448 32.7286 81.132 32.585C81.3192 32.4893 81.5532 32.4414 81.834 32.4414C82.4424 32.4414 82.8636 32.6807 83.0508 33.1114H83.0976C83.238 32.92 83.3784 32.7286 83.6124 32.585C83.8464 32.4414 84.0804 32.3936 84.3612 32.3936C84.8292 32.3936 85.1568 32.5371 85.3908 32.7286C85.6248 32.9679 85.7184 33.3507 85.7184 33.8772V36.5094H85.7652Z" fill="#552B9A"/>
<path d="M89.8837 36.5094H89.4157L89.2753 35.9351H89.2285C89.0413 36.1744 88.8541 36.3659 88.6201 36.4616C88.4329 36.5573 88.1989 36.6052 87.8713 36.6052C87.4969 36.6052 87.1693 36.5094 86.9353 36.2701C86.7013 36.0787 86.6077 35.7437 86.6077 35.3608C86.6077 34.5472 87.2629 34.1165 88.5265 34.0686H89.1817V33.8293C89.1817 33.4943 89.1349 33.255 88.9945 33.1114C88.8541 32.9679 88.6201 32.8722 88.3393 32.8722C88.0585 32.8722 87.6373 32.9679 87.2629 33.1593L87.0757 32.6807C87.4969 32.4414 87.9649 32.3457 88.4329 32.3457C88.9009 32.3457 89.2753 32.4414 89.5093 32.6807C89.7433 32.92 89.8369 33.255 89.8369 33.7336V36.5094H89.8837ZM87.3565 35.4087C87.3565 35.648 87.4033 35.7916 87.5437 35.9351C87.6841 36.0787 87.8713 36.1266 88.1053 36.1266C88.4797 36.1266 88.7605 36.0308 88.9945 35.7916C89.2285 35.6001 89.3221 35.2651 89.3221 34.9301V34.5472L88.7137 34.5951C88.2457 34.5951 87.8713 34.6908 87.6841 34.8344C87.4501 34.9301 87.3565 35.1215 87.3565 35.4087Z" fill="#552B9A"/>
<path d="M91.7089 36.5094H91.1005V30.7664H91.7089V33.8293C91.7089 33.9729 91.7089 34.2122 91.6621 34.4515H91.7089C91.8025 34.3079 91.9897 34.1165 92.1769 33.8772L93.4405 32.4893H94.1425L92.5513 34.2122L94.2829 36.5573H93.5341L92.1301 34.6429L91.6621 35.0258V36.5094H91.7089Z" fill="#552B9A"/>
<path d="M96.576 36.6051C95.9676 36.6051 95.4996 36.4137 95.172 36.0787C94.8444 35.6958 94.6572 35.2172 94.6572 34.5472C94.6572 33.8772 94.7976 33.3507 95.1252 32.9679C95.4528 32.585 95.874 32.3936 96.3888 32.3936C96.9036 32.3936 97.3248 32.585 97.6056 32.92C97.8864 33.255 98.0268 33.6857 98.0268 34.2601V34.6429H95.2656C95.2656 35.1215 95.406 35.5044 95.64 35.7437C95.874 35.983 96.2016 36.1266 96.6228 36.1266C97.044 36.1266 97.4652 36.0308 97.8864 35.8394V36.3658C97.6992 36.4616 97.4652 36.5094 97.278 36.5573C97.044 36.5573 96.81 36.6051 96.576 36.6051ZM97.3716 34.1165C97.3716 33.7336 97.278 33.4465 97.1376 33.2072C96.9504 33.0157 96.7164 32.92 96.3888 32.92C96.0612 32.92 95.8272 33.0157 95.64 33.255C95.4528 33.4465 95.3124 33.7815 95.3124 34.1165H97.3716Z" fill="#552B9A"/>
<path d="M100.882 32.3936C101.069 32.3936 101.209 32.3936 101.35 32.4414L101.256 33.0157C101.116 32.9679 100.975 32.9679 100.835 32.9679C100.507 32.9679 100.227 33.1114 99.9925 33.3507C99.7585 33.6379 99.6649 33.9729 99.6649 34.3558V36.5573H99.0565V32.4893H99.5713L99.6181 33.255H99.6649C99.8053 32.9679 99.9925 32.7764 100.18 32.6328C100.367 32.4414 100.601 32.3936 100.882 32.3936Z" fill="#552B9A"/>
<path d="M104.626 35.4087C104.626 35.7915 104.485 36.0787 104.204 36.2701C103.924 36.4616 103.549 36.5573 103.034 36.5573C102.52 36.5573 102.098 36.4616 101.818 36.318V35.7437C102.239 35.9351 102.66 36.0787 103.081 36.0787C103.736 36.0787 104.064 35.8873 104.064 35.4565C104.064 35.313 104.017 35.1694 103.877 35.0258C103.736 34.9301 103.502 34.7865 103.128 34.6429C102.754 34.4994 102.473 34.3558 102.332 34.2601C102.005 34.0686 101.864 33.7815 101.864 33.4465C101.864 33.1114 102.005 32.8243 102.239 32.6329C102.52 32.4414 102.847 32.3457 103.315 32.3457C103.783 32.3457 104.204 32.4414 104.579 32.6329L104.345 33.1593C103.97 32.9679 103.596 32.92 103.315 32.92C102.988 32.92 102.8 32.9679 102.66 33.0636C102.52 33.1593 102.426 33.3029 102.426 33.4465C102.426 33.5422 102.473 33.6379 102.52 33.7336C102.566 33.8293 102.66 33.8772 102.8 33.9729C102.941 34.0208 103.175 34.1643 103.502 34.2601C103.97 34.4515 104.298 34.5951 104.438 34.7865C104.579 34.9301 104.626 35.1215 104.626 35.4087Z" fill="#552B9A"/>
<path d="M107.2 36.6051C106.638 36.6051 106.17 36.4137 105.843 36.0787C105.515 35.6958 105.375 35.2172 105.375 34.5472C105.375 33.8772 105.515 33.3507 105.843 32.9679C106.17 32.585 106.638 32.3936 107.2 32.3936C107.387 32.3936 107.574 32.3936 107.761 32.4414C107.949 32.4893 108.089 32.5371 108.229 32.585L108.042 33.1114C107.761 32.9679 107.481 32.92 107.2 32.92C106.404 32.92 105.983 33.4465 105.983 34.4993C105.983 35.0258 106.077 35.4087 106.264 35.648C106.451 35.9351 106.732 36.0308 107.153 36.0308C107.481 36.0308 107.808 35.9351 108.183 35.7915V36.318C107.949 36.5094 107.621 36.6051 107.2 36.6051Z" fill="#552B9A"/>
<path d="M109.399 32.92C109.727 32.5371 110.148 32.3457 110.756 32.3457C111.365 32.3457 111.786 32.5371 112.114 32.92C112.441 33.3029 112.628 33.8293 112.628 34.4515C112.628 35.1215 112.441 35.6001 112.114 35.983C111.786 36.3659 111.318 36.5573 110.756 36.5573C110.195 36.5573 109.774 36.3659 109.446 35.983C109.118 35.6001 108.931 35.0737 108.931 34.4515C108.931 33.8293 109.118 33.3029 109.399 32.92ZM110.756 32.92C109.961 32.92 109.586 33.4465 109.586 34.4994C109.586 35.0258 109.68 35.4087 109.914 35.6958C110.101 35.983 110.429 36.1266 110.803 36.1266C111.178 36.1266 111.505 35.983 111.692 35.7437C111.88 35.4565 112.02 35.0737 112.02 34.5472C112.02 34.0208 111.926 33.6379 111.692 33.3507C111.458 33.0157 111.131 32.92 110.756 32.92Z" fill="#552B9A"/>
<path d="M115.109 36.6052C114.594 36.6052 114.173 36.4137 113.892 36.0787C113.611 35.6958 113.471 35.1694 113.471 34.5472C113.471 33.8772 113.611 33.3507 113.892 32.9679C114.173 32.585 114.594 32.3936 115.109 32.3936C115.624 32.3936 116.045 32.585 116.326 32.9679H116.372L116.326 32.6807V32.3936V30.7185H116.934V36.5094H116.466L116.372 35.983H116.326C116.045 36.3659 115.624 36.6052 115.109 36.6052ZM114.313 33.3029C114.126 33.59 114.032 33.9729 114.032 34.4994C114.032 35.0258 114.126 35.4087 114.313 35.6958C114.5 35.983 114.781 36.0787 115.156 36.0787C115.577 36.0787 115.858 35.983 116.045 35.7437C116.232 35.5044 116.326 35.1215 116.326 34.6429V34.4994C116.326 33.9251 116.232 33.4943 116.045 33.255C115.858 33.0157 115.577 32.8722 115.156 32.8722C114.781 32.8722 114.5 33.0157 114.313 33.3029Z" fill="#552B9A"/>
<path d="M119.883 36.6051C119.274 36.6051 118.806 36.4137 118.479 36.0787C118.151 35.6958 117.964 35.2172 117.964 34.5472C117.964 33.8772 118.104 33.3507 118.432 32.9679C118.759 32.585 119.181 32.3936 119.695 32.3936C120.21 32.3936 120.631 32.585 120.912 32.92C121.193 33.255 121.333 33.6857 121.333 34.2601V34.6429H118.572C118.572 35.1215 118.713 35.5044 118.947 35.7437C119.181 35.983 119.508 36.1266 119.929 36.1266C120.351 36.1266 120.772 36.0308 121.193 35.8394V36.3658C121.006 36.4616 120.772 36.5094 120.585 36.5573C120.351 36.5573 120.117 36.6051 119.883 36.6051ZM120.678 34.1165C120.678 33.7336 120.585 33.4465 120.444 33.2072C120.257 33.0157 120.023 32.92 119.695 32.92C119.368 32.92 119.134 33.0157 118.947 33.255C118.759 33.4465 118.619 33.7815 118.619 34.1165H120.678Z" fill="#552B9A"/>
</g>
<defs>
<clipPath id="clip0">
<rect width="182" height="42" fill="white"/>
</clipPath>
</defs>
</svg>
